#!OML:ASF F:\VICON\USERDATA\INSTALL\rory3\rory3.ASF
:FULLY-SPECIFIED
:DEGREES
306
root -0.374527 17.7432 10.718 173.814 16.6776 -176.691
lowerback 24.6344 1.4406 3.77959
upperback 4.1515 4.52305 5.67823
thorax -9.33293 2.55572 2.6171
lowerneck -9.58412 -3.23807 -3.40362
upperneck 27.4132 -0.853962 -3.92495
head 10.3552 -0.470555 -0.779337
rclavicle -4.81059e-014 -9.54166e-015
rhumerus -6.33835 -0.0533387 -67.0953
rradius 69.9335
rwrist 27.9723
rhand -16.4861 2.53134
rfingers 7.12502
rthumb 9.73118 -27.2238
lclavicle -4.81059e-014 -9.54166e-015
lhumerus -44.0875 8.52064 80.1144
lradius 48.174
lwrist 9.48275
lhand -11.8967 52.0151
lfingers 7.12502
lthumb 14.1565 81.5128
rfemur -6.84388 -3.31264 25.7115
rtibia 38.6847
rfoot -21.3093 -23.916
rtoes 12.9749
lfemur -24.7237 -11.7923 -12.5348
ltibia 44.1115
lfoot -5.81261 1.72315
ltoes -17.5769
307
root -0.401523 17.7254 10.6326 173.992 17.1376 -176.733
lowerback 24.6285 1.39352 4.14091
upperback 4.33789 4.56141 5.6296
thorax -9.09163 2.57642 2.34572
lowerneck -9.89199 -3.44287 -3.87139
upperneck 27.281 -1.24601 -3.43556
head 10.3757 -0.672052 -0.578806
rclavicle -4.6118e-014 -6.36111e-014
rhumerus -5.52719 0.33075 -66.3503
rradius 70.0971
rwrist 28.2174
rhand -15.9186 2.05888
rfingers 7.12502
rthumb 10.2787 -27.67
lclavicle -4.6118e-014 -6.36111e-014
lhumerus -44.0482 8.73412 80.0589
lradius 48.2475
lwrist 9.46511
lhand -11.6417 52.6029
lfingers 7.12502
lthumb 14.4023 82.0832
rfemur -6.88659 -3.08445 25.4855
rtibia 38.9103
rfoot -21.5816 -23.6456
rtoes 13.1752
lfemur -25.0077 -12.6905 -12.1043
ltibia 42.0259
lfoot -4.92731 0.995755
ltoes -16.1413
308
root -0.422953 17.7132 10.5441 174.11 17.5372 -176.855
lowerback 24.8364 1.37756 4.29104
upperback 4.31651 4.59238 5.59597
thorax -9.21106 2.58196 2.20609
lowerneck -9.90196 -3.38989 -3.8405
upperneck 27.2193 -1.19134 -3.44672
head 10.3541 -0.64964 -0.581994
rclavicle -1.11319e-014 -1.43125e-013
rhumerus -4.84956 0.697618 -65.8299
rradius 69.772
rwrist 28.6731
rhand -15.7317 1.61373
rfingers 7.12502
rthumb 10.459 -28.1061
lclavicle -1.11319e-014 -1.43125e-013
lhumerus -44.5604 9.10832 79.8831
lradius 48.4813
lwrist 9.04245
lhand -11.412 52.4307
lfingers 7.12502
lthumb 14.6236 81.8951
rfemur -6.91826 -2.89759 25.1903
rtibia 39.1316
rfoot -21.4765 -23.7131
rtoes 11.5409
lfemur -25.2218 -13.9125 -11.6506
ltibia 39.8642
lfoot -3.45311 -0.194204
ltoes -12.7529
309
root -0.444633 17.704 10.4479 174.26 18.0424 -176.822
lowerback 25.1728 1.44039 4.5412
upperback 4.36841 4.78655 5.62492
thorax -9.31643 2.67121 2.02142
lowerneck -10.0173 -2.97045 -2.71491
upperneck 26.7378 -0.529595 -4.78567
head 10.1807 -0.389244 -1.16828
rclavicle -9.14409e-015 -6.20208e-014
rhumerus -3.97601 0.752544 -65.3907
rradius 69.2553
rwrist 29.2325
rhand -15.6811 1.06853
rfingers 7.12502
rthumb 10.5078 -28.6488
lclavicle -9.14409e-015 -6.20208e-014
lhumerus -44.7154 9.38141 79.8484
lradius 48.379
lwrist 8.67737
lhand -11.4066 51.7366
lfingers 7.12502
lthumb 14.6288 81.2006
rfemur -6.9052 -2.62533 25.0445
rtibia 39.3797
rfoot -21.4362 -23.623
rtoes 10.1385
lfemur -25.3898 -15.4805 -10.9094
ltibia 37.6394
lfoot -2.95638 -1.95761
ltoes -14.4557
310
root -0.466042 17.6935 10.3484 174.334 18.6083 -177.017
lowerback 25.4587 1.52187 4.48039
upperback 4.21832 4.89965 5.67938
thorax -9.64664 2.71127 2.06854
lowerneck -10.1136 -3.39618 -3.52691
upperneck 27.4097 -1.04508 -4.08551
head 10.459 -0.619394 -0.848558
rclavicle 1.70955e-014 -9.54166e-015
rhumerus -3.84573 1.48016 -64.9128
rradius 69.0908
rwrist 29.8328
rhand -15.3297 0.395346
rfingers 7.12502
rthumb 10.8468 -29.3045
lclavicle 1.70955e-014 -9.54166e-015
lhumerus -45.5004 9.76008 79.7938
lradius 48.4218
lwrist 8.65115
lhand -11.495 51.5147
lfingers 7.12502
lthumb 14.5436 80.9849
rfemur -6.86759 -2.17303 24.665
rtibia 39.6511
rfoot -21.8787 -23.3204
rtoes 10.3356
lfemur -25.4975 -17.0154 -10.3806
ltibia 35.3602
lfoot -0.765665 -2.78015
ltoes -8.02053
311
root -0.482895 17.6747 10.2517 174.295 19.0504 -177.457
lowerback 25.6274 1.61666 4.15347
upperback 4.24252 4.93914 5.67013
thorax -9.7323 2.73605 2.22557
lowerneck -9.94022 -3.35884 -3.48754
upperneck 27.1697 -0.963408 -4.35144
head 10.3356 -0.606893 -0.935883
rclavicle -4.45278e-014 -1.38354e-013
rhumerus -4.17043 2.58844 -64.3017
rradius 69.7938
rwrist 30.2939
rhand -14.6533 -0.0211198
rfingers 7.12502
rthumb 11.4991 -29.6857
lclavicle -4.45278e-014 -1.38354e-013
lhumerus -45.8517 10.157 79.8196
lradius 48.4467
lwrist 8.60668
lhand -11.6173 51.8097
lfingers 7.12502
lthumb 14.4258 81.2883
rfemur -6.82155 -1.92906 24.026
rtibia 39.9412
rfoot -22.1223 -23.1731
rtoes 9.6175
lfemur -25.5296 -18.5838 -10.0643
ltibia 33.0752
lfoot 0.782436 -4.44206
ltoes -6.26051
312
root -0.499969 17.6604 10.14 174.402 19.5301 -177.906
lowerback 25.3707 1.70667 3.92507
upperback 4.34248 4.94444 5.58696
thorax -9.49437 2.74468 2.27224
lowerneck -9.92255 -3.34301 -3.43873
upperneck 26.9399 -0.981005 -4.43065
head 10.2459 -0.628346 -0.973313
rclavicle 0 -4.92986e-014
rhumerus -4.64674 3.24527 -63.9963
rradius 70.7232
rwrist 31.1858
rhand -13.2207 0.764104
rfingers 7.12502
rthumb 12.8805 -28.8184
lclavicle 0 -4.92986e-014
lhumerus -46.0095 10.7663 79.6993
lradius 48.2321
lwrist 8.02163
lhand -11.7573 51.5414
lfingers 7.12502
lthumb 14.2909 81.0296
rfemur -6.95565 -1.77673 23.3183
rtibia 40.3424
rfoot -22.3682 -23.0038
rtoes 8.67891
lfemur -25.85 -20.3623 -9.6427
ltibia 31.0326
lfoot 1.19498 -7.48675
ltoes -13.9003
313
root -0.520114 17.6546 10.0218 174.612 20.0912 -178.294
lowerback 24.8416 1.7512 3.80044
upperback 4.44749 4.89745 5.52176
thorax -9.10163 2.7271 2.30806
lowerneck -9.88508 -3.30189 -3.5077
upperneck 26.8254 -0.936825 -4.42666
head 10.1984 -0.619373 -0.954317
rclavicle 7.15625e-015 2.06736e-014
rhumerus -5.1396 3.59774 -63.9486
rradius 71.3753
rwrist 32.3721
rhand -12.2949 2.63117
rfingers 7.12502
rthumb 13.7728 -26.8929
lclavicle 7.15625e-015 2.06736e-014
lhumerus -46.275 11.3416 79.6151
lradius 47.9321
lwrist 7.65691
lhand -11.9099 51.1121
lfingers 7.12502
lthumb 14.1438 80.6107
rfemur -7.2016 -1.55764 22.6624
rtibia 40.7529
rfoot -22.6506 -22.7173
rtoes 7.94166
lfemur -26.4759 -22.0572 -9.07691
ltibia 29.2459
lfoot 2.64297 -8.81078
ltoes -6.52219
314
root -0.534053 17.6062 9.94205 174.846 20.0433 -178.164
lowerback 25.3522 1.76159 3.87339
upperback 4.46783 5.02301 5.69615
thorax -9.36072 2.796 2.39917
lowerneck -11.1128 -3.51476 -3.56402
upperneck 27.364 -1.19611 -4.32181
head 10.6381 -0.770099 -0.964839
rclavicle 7.55382e-015 -7.95139e-015
rhumerus -5.88091 4.40537 -63.8242
rradius 71.8945
rwrist 30.959
rhand -13.9779 1.90953
rfingers 7.12502
rthumb 12.1504 -27.7176
lclavicle 7.55382e-015 -7.95139e-015
lhumerus -45.8426 11.1982 80.0387
lradius 47.3754
lwrist 7.77279
lhand -11.9226 51.1981
lfingers 7.12502
lthumb 14.1316 80.6975
rfemur -7.41396 -1.72902 22.6533
rtibia 41.1965
rfoot -22.8176 -22.8418
rtoes 6.35068
lfemur -27.0604 -22.4866 -8.33246
ltibia 27.848
lfoot 4.0847 -12.0696
ltoes -5.01781
315
root -0.544982 17.5721 9.85666 174.971 20.0814 -177.981
lowerback 25.725 1.70856 3.99733
upperback 4.39199 5.06536 5.89025
thorax -9.65239 2.81765 2.51578
lowerneck -10.8993 -3.63125 -3.71983
upperneck 27.2786 -1.35588 -4.26639
head 10.5668 -0.84795 -0.93381
rclavicle -7.95139e-016 -8.5875e-014
rhumerus -6.93608 4.99909 -64.0173
rradius 72.094
rwrist 30.7142
rhand -14.8426 2.24754
rfingers 7.12502
rthumb 11.3166 -27.4272
lclavicle -7.95139e-016 -8.5875e-014
lhumerus -45.8489 11.3871 80.2444
lradius 46.7962
lwrist 7.6325
lhand -11.9224 51.7813
lfingers 7.12502
lthumb 14.1318 81.2807
rfemur -7.41305 -1.65134 22.7402
rtibia 41.5982
rfoot -23.221 -22.8771
rtoes 5.89928
lfemur -27.5391 -22.6812 -7.67976
ltibia 26.7435
lfoot 6.40752 -14.216
ltoes -0.936015
316
root -0.562845 17.5592 9.73132 174.848 20.6835 -178.367
lowerback 25.6579 1.84492 3.8008
upperback 4.57744 5.17206 5.84282
thorax -9.4217 2.88118 2.54355
lowerneck -10.8232 -3.65931 -3.61716
upperneck 26.9351 -1.45053 -4.40278
head 10.4203 -0.906433 -1.00789
rclavicle -1.94809e-014 -6.20208e-014
rhumerus -7.85359 5.14647 -64.4586
rradius 71.9701
rwrist 31.0497
rhand -15.42 3.32773
rfingers 7.12502
rthumb 10.7596 -26.3767
lclavicle -1.94809e-014 -6.20208e-014
lhumerus -45.7943 11.7335 80.2999
lradius 46.3053
lwrist 7.26273
lhand -11.4525 52.6511
lfingers 7.12502
lthumb 14.5845 82.1183
rfemur -7.28902 -1.25829 22.1143
rtibia 42.0534
rfoot -23.5908 -22.6948
rtoes 5.17824
lfemur -27.6003 -23.1592 -7.70125
ltibia 25.9389
lfoot 8.38866 -14.5379
ltoes 1.96979
